<?xml version="1.0" standalone="no"?>
<!DOCTYPE svg PUBLIC "-//W3C//DTD SVG 20010904//EN"
        "http://www.w3.org/TR/2001/REC-SVG-20010904/DTD/svg10.dtd">
<svg version="1.0" xmlns="http://www.w3.org/2000/svg"
     width="700.000000pt" height="700.000000pt" viewBox="0 0 700.000000 700.000000"
     preserveAspectRatio="xMidYMid meet">
    <metadata>
        Created by potrace 1.11, written by Peter Selinger 2001-2013
    </metadata>
    <g transform="translate(0.000000,700.000000) scale(0.100000,-0.100000)"
       fill="#000000" stroke="none">
        <path d="M2938 6996 c-1 -2 -37 -7 -78 -10 -148 -14 -175 -19 -370 -61 -95
-20 -343 -103 -433 -144 -37 -17 -71 -31 -75 -31 -18 0 -314 -167 -410 -231
-305 -205 -630 -529 -848 -845 -157 -229 -299 -494 -390 -729 -123 -319 -169
-494 -228 -870 -36 -227 -38 -250 -41 -530 -2 -268 3 -356 31 -555 2 -19 7
-53 9 -74 11 -83 47 -274 66 -346 11 -41 21 -82 23 -90 2 -8 12 -42 22 -75 10
-33 18 -62 19 -65 4 -23 85 -252 112 -320 42 -102 131 -285 192 -395 97 -173
278 -443 340 -506 9 -9 36 -41 60 -70 71 -86 328 -338 421 -412 83 -67 289
-208 380 -260 85 -49 305 -155 398 -191 89 -35 329 -109 388 -120 52 -9 89
-17 104 -21 8 -2 38 -7 65 -11 28 -3 59 -8 70 -10 87 -18 478 -26 600 -12 33
4 68 7 78 7 11 1 15 5 11 13 -5 8 -3 8 7 2 8 -5 23 -9 34 -10 11 -1 63 -5 115
-10 114 -11 415 -11 520 -1 137 13 158 17 381 62 33 7 255 75 304 94 314 118
597 283 865 504 121 100 340 323 443 452 319 399 550 859 682 1359 19 72 36
142 39 156 2 14 9 48 15 75 30 140 52 297 68 485 14 168 7 593 -12 725 -2 17
-9 68 -15 115 -5 47 -12 94 -14 105 -2 11 -11 58 -20 105 -9 47 -19 96 -22
110 -3 14 -9 41 -14 60 -5 19 -11 45 -13 57 -26 106 -83 287 -135 423 -68 178
-149 349 -238 503 -19 32 -34 60 -34 62 0 23 -231 347 -340 475 -85 101 -296
310 -400 396 -334 277 -727 478 -1140 585 -25 6 -56 13 -70 16 -14 2 -59 10
-100 18 -93 18 -125 22 -220 32 -104 11 -437 10 -540 -1 -85 -10 -138 -10
-195 0 -34 5 -461 14 -467 10z"/>
    </g>
</svg>
